<svg xmlns="http://www.w3.org/2000/svg" viewBox="0 0 489.76 375.72" xmlns:xlink="http://www.w3.org/1999/xlink" xmlns:dc="http://purl.org/dc/elements/1.1/">
  <desc property="dc:creator">Johann Arendt</desc>
  <defs>
    <style>
      .cls-1, .cls-3 {
        fill: #039;
      }

      .cls-2, .cls-4, .cls-5, .cls-8 {
        fill: #fff;
      }

      .cls-3 {
        fill-rule: evenodd;
      }

      .cls-4 {
        font-size: 20px;
        font-family: Arial-BoldMT, Arial;
        font-weight: 700;
      }

      .cls-5 {
        font-size: 14px;
      }

      .cls-5, .cls-8 {
        font-family: ArialMT, Arial;
      }

      .cls-8 {
        font-size: 12px;
        pointer-events: none;
        opacity: 0.65;
      }

      @media only screen and (max-width: 360px) {
        .cls-5, .cls-8 {
          display: none;
        }
      }

      a:hover {
        cursor: pointer;
      }

      a:hover .cls-1 {
        fill: #2874B2;
        transition: 0.2s;
      }
    </style>
  </defs>
  <g id="THW">
    <a xlink:href="http://www.thw-muenchen-mitte.de/" target="_top">
      <g id="Mitte">
        <path class="cls-1" d="M584.59,173.59l-.05,1.64-.19,1.84-.15.73-.68,2.31-.29.2-1.78,3.67-.17.36-.57.69-1.05,1.1-1.27,1.1-.78.62-3.82,2.75-1.47,1.34-1.2,1.49-.72,1.19-.98,2.18-.56,1.87-.16,1.73v1.73l.05,2.05-.19,1.76-.28,1.54-.39,1.27-5.87,16.52-1.39,3.44-1.14,2.4-1.63,3.51-.73,1.37-.17.29-.08.12.14.09.09.3.15.08-.02.04.14.44c-5.18,10.34-11.04,20.37-16.66,30.08h-.01l-.16.29-.33.57.02.01c-8.16,14.87-19.53,30.84-25.96,46.34-.41,4.83-1.49,10.21-3.88,14.51l-.09-.03c-.02.07-.03.14-.05.21-4.86,2.85-6.84,9.06-10.01,13.43-2.73,2.97-6.93,5.78-10.11,8.32l.01.01c-1.07.79-2.19,1.67-3.34,2.61l-.15-.03-.01.15c-4.91,3.99-10.35,8.9-14.71,12.33-2.82,2.76-5.92,6.42-6.83,10.34.13,2.5-.05,7.87,1.63,9.94.89,2.48-.6,5.42-2.38,7.27l-.03-.03c-.06.08-.12.17-.19.25-2.45.92-6.37,1.44-7.35,3.91l-.01.01a.8129.8129,0,0,0-.18.19l.09.11a.983.983,0,0,0-.05.16l.06.02a14.1835,14.1835,0,0,1-.95,2.13.9288.9288,0,0,1-.13.04l.04.14c-.45.82-.94,1.63-1.36,2.3l-.02-.01c-.03.06-.06.12-.09.19a.5938.5938,0,0,1-.04.08,2.8354,2.8354,0,0,1-.23.19l.06.07a.4053.4053,0,0,1-.05.09l.06.03c-2.3,5.55-.01,14.16-.05,19.79-.32.17-.47,2.31-.55,3.24-.56,2.71-3.17,5.84-4.74,7.91-2.55,5.04-4.82,12.71-7.29,17.77a10.9273,10.9273,0,0,1,.16,1.34l-4.85-.08-1.14.16-.5.14h-.1l-.84.2-.74.09-.16-.02-.58.05-.05.02-.09-.08-.17.18-.02.01-.1-.01-.17.03-.72.5-.36.35-.43.54-.02-.02-.41.57-.02.02-.34.47-.49.96-.23.94-.13.75-.18.72-1.57,3.75.02.06-1.03,2.31.02.01-.09.06-.19,2.11-.18.85-.14,1.57-.3.26-.08.64-.07.06V472l-2.29.04-.37.36-.03.95-1.04-.03-1.09-.16-.81.2-.19.13-.41.52-.65.97-.06.18-.12,2.04-.4-.05.13-.82-.17-.21-.02-.31-.35-.34-.23-.01-1.82.01-.22-.01-2.24.15-.31.51.04.1-.64.22-.24.37.02.26-.3.03-.31-.07-.02.1-.1.01.02.29-.06.27-.29-.07-.46-.12v.01h-.01l-.1.42-.07.3-.33,1.28-.04-.02-.46.27-.42,1.66-.26,1.77-.1.39-5.21-1.85-.43.15-3.49,5.48-.3-.04-1.54-.37-1.35-.4-1.05-.16-1.44-.36-.81-5.96-.2-.27-.71-.37-.19-.88-.32-1.03.25-.09.21-.45-.35-1.2-.07-.88.17-.96.65-1.02.4-.62-.63-.39-15.77-9.63-.64-.38-5.67-3.42-.2.06-.08-.24-.15-.09-.63-.38-15.81-9.63-2.17-1.25-.13.02-.01-.1-2.9-1.76.48-1.3,1.51-2.7.94-1.98.35-.68,1.18-.51.26-.17,1.13-1.76,1.11-2.02-.33-.53-1.11.01-.25-.01-.5-.1-.16-.19-.69-.3-1.02-.7-.5-.39-1.16-.72,1.71-5.09.14-1.6.2-.94.42-2.84-.26-.33.04-.31.16-.1-.12-.2.03-.22-.18-.03-4.18-6.87,4.36-8.09h.01l.25-.47.1-.17.13-.25-.12-.32.41-1.24-.27-.48-1.99-.43-1.73-.45-1.64-.57-1.58-.85-.55.31-.04.92-1.23.02-1.72-.01-5.34.06.28-3.78.41-2.2.02-.56-.16-1.12-.17-.43-.09-.15-.1-1.74-.01-.4.03-.44-.09-.27-.07-.34.17-1.34.18-.61.06-.52-.03-.83-.33-1.33-.05-.32-.01-.24.14-.97.02-.42,1.91-.4h.35v-.07l.06-.01-.06-.3-.01-2.18.47-2.85.2-1.53v-1.15l-.11-2.93-.1-.79-.45-1.76-.24-.6-.15-.79-.33-2.31.06-.68-.06-.55,1.73.1.73.04,2.58.14,3.82.08v.01h.37l.36.01v-.01l1.96.02h.74l4.01-.02,4.36-.15,6.2-.29.74-.03,1.62-.06.74-.03,1.05-.05,1.43-.11,1.47-.18,1.43-.24,2.29-.59,1.29-.41,2.51-.93.68-.25,1.99-.75,1.29-.41,1.01-.28,1.14-.19,1.39-.15,1.2-.1,1.42.02,1.46.1,1.36.16,1.7.26,1.36.25v-.01l2.37.41.73.13,3.65.68.72.13,9.03,1.68.92.14a.81.81,0,0,1,.06-.13l-.01-.01.32-.83.17-.44h-.01a16.2782,16.2782,0,0,1,1.63-3.45l-.04-.03a34.0074,34.0074,0,0,1,5.05-5.47l.01.01,4.13-3.55-.01-.01,2.21-1.96.02.02c.35-.34,1.73-1.65,2.11-2.01l.01.01c.13-.12.39-.36.53-.47l-.01-.01.05-.05c.01-.02.5-.47.53-.5l-.01-.02a5.1963,5.1963,0,0,0,.74-.94l.11.03.09-.32.17-.25-.08-.05a36.4135,36.4135,0,0,0,1.23-8.99h.01c-.01-.17-.02-.56-.03-.73h-.01a47.6374,47.6374,0,0,1-.06-7.74h.01a5.5855,5.5855,0,0,1,.09-.7h-.02l.13-1.41h.04a38.0165,38.0165,0,0,1,.33-4.23,13.3522,13.3522,0,0,1,1.23-2.56l-.01-.01a6.8327,6.8327,0,0,0,.8-3.06h.02l.03-.46h.03a5.4517,5.4517,0,0,1,.01-.7h-.03c.01-.88.17-4.9.19-5.86h.01c.14-6.14.33-14.07.47-20.24h.01c.01-1.41.11-4.91.2-8.2.01-.47.02-.94.04-1.4-.27-.39-.56-.83-.86-1.26-.36-.53-.72-1.05-1.02-1.45l.02-.02c-.28-.33-.65-.78-.93-1.11l-.01.01a7.4862,7.4862,0,0,0-1.02-1.01c-.9-.82-2.27-2.12-3.18-2.9-1.71-1.47-3.78-3.43-5.55-4.84v-.01c-.15-.1-.46-.32-.6-.43V263c-2.59-1.88-6.84-5.05-9.3-6.98l-.03.04c-.98-.66-6.76-4.7-7.86-5.47a56.0111,56.0111,0,0,1-5.76-4.22l.02-.02a5.19,5.19,0,0,0-.49-.55c-.45-.35-.96-.83-1.4-1.2v.01c-.59-.52-1.39-1.17-2.02-1.63l.01-.01c-.06-.03-.19-.12-.25-.16l.01-.01-.06-.05-.01.01c-.65-.42-1.61-.97-2.23-1.45a35.8671,35.8671,0,0,1-3.79-3.81c-.22-.83-2.85-12.17-3.15-12.55a4.1519,4.1519,0,0,1-.15-1.83c.02-.2.06-.43.07-.62v-.03h.01l.02-.2-.16-.02c-.13-.01-.28-.03-.4-.05l-.17-.02-.83-.11c-2.37-.72-6.5-.63-7.83-3.12l-.01.01c-1.08-1.77-.29-5.53-1.34-7.34l.05-.03a3.9251,3.9251,0,0,1-.3-.62l-.05.02a11.17,11.17,0,0,0-1.03-1.54l.01-.01c-.12-.17-.33-.42-.44-.59l-.01.01c-2.01-2.8-7.87-12.41-9.65-15.55l-.01.01a15.5986,15.5986,0,0,1-.73-1.74h.01c-.05-.17-.13-.52-.16-.7h-.02l-.06-.21h-.02l-.12-.61h.01l-.07-.3h.02a20.4533,20.4533,0,0,1-.4-3.99h.01l-.02-.21h.02a4.233,4.233,0,0,1-.05-.5h-.03l-.02-.21-.05.01a7.0118,7.0118,0,0,0-.37-1.38l.05-.03-.1-.17-.02.01c-.01-.05-.34-.59-.37-.64l-.05.03-1.11-1.49.02-.02c-.11-.14-5.04-6.45-5.15-6.58l-.01.01c-.45-.58-1.49-1.91-1.92-2.47h-.01l-1.9-2.41.12-.1.26-.03-.02-.16.13-.11-.17-.21-.02-.13,8.72-3.16.69-.25,8.64-3.12-.04-.7-2.66-.62.07-.77-1.32-4.59.31-4.09.06-1,.16-1.06-.84-3.23-.35-2.32.01-.16,1.08-2.55.96-1.72.75-.77.08-.12.29-1.52-.59-3.46-.3-1.31,1.25-.05,1.09-.51.2-.28.5-3.09-.06-.26-1.24-1.85-.1-.21-.08-.24.74-.97.09-.16.11-.41-.01-.25-1.21-2.65-.11-.32-.08-.5.03-3.16.05-.32-.01-.11.26-.54,3.24-1.06,5.89-2.04.6-.19,2.08-.27.29-.51-.08-.17-.05-.55v-.07l1.42-.07,2.82.79,3.88.64,1.1.38,1.07.51,1.71.54,3.35.92.95.23,1.41.44,2.59,1.57L405.4,120l2.21,1.12,4.67,2.58,1.69.91.26.07.14.75.5,1,1.07,2.98.45.97.27,1.02.87,2.28.4,1.43.58,1.68.21.45.3.89.49,1.14.74,2.2.37.9.25.35.18.12,1.35,1.72.31.15,3.5-.21-.05,1.16.03.04-.02.27.32.38,2.64.35,1.99.5.09-.05.32.08.08.17,5.14,1.28-.06.37.35.41,2.15.13.38-.27.18-.67.27.07-.02.21.1.45.91,1.36.33.43.29.3.59.47.41.27,1.36.58.87.23.84.1,1.85.09,2.96-.12,1.59-.02.18-.06.17-.1.98-.04h.01l.72-.03v-.01l2.97-.16,5.13-.21.31.11.32-.08.11-.09,2.92-.17v.01l.36-.03.37-.02v-.01l1.56-.12.73-.06,1.53-.13,8.26-.94,13.02-2.03.51.85-.03.06.47.76,2.08,2.53,2.94,3.26.39.59.05.14.02-.01-.02.09.17.46.26,1.69.22,1.69h-.04v.15l-.13.08.14.18.06,2.25-.01.03.36,13.94.01.66-.01.17h-.02l.01.32-.01.39h.03v.03l.35-.02.36.01v-.03l.37-.02,5.64-.28,3.6.19,4.17-.05,1.27.01.79.11,2.02.02,1.24-.13.32-.43-.47-2.6-.01-.24.13-.02.55-.66-.14-1.73-.17-1.52,3.08-.98.88-.26.25-.43-.25-1.27h.67l.98-.2.29-.39-.11-1.17,5.89.34.38-.3.04-.2.51.08.39-.53-2.13-4.2-1.19-2.69-.98-1.73-1.4-2.14-1.04-2.13-.72-1.56-.24-.32-.29-.29,1.59-.71.79,2.95.41.28.65-.1.45.17.53.12.41.01.46-.03H530l1.54-.26,1.9.12.39-.3.17-.97,1.26-3.48,2.13.25.83.03,1.28.21.95.04.51-.08,1.62-.07,1.1.06.65-.01.62.01.58.06.75-.03.35-.3.05-.52-.1-.51-.14-1.1.22-.03,1.71.1.37-.21.47-.83,5.03,1.75.09.16,4.79,1.73,1.11.41.45-.17.02-.03,1.99.74,1.31.52,1.35.44.1-.05.89.2,1.07.16.99.23.06.09.35.24-.98,1.1-.37.48-.07.14-.06.33.02.38v.58l.29,1.02.05.97.13.6.86,2.36.21.22,4.53,1.82.27.11-.29.2-.15.18-.07.19-.01.24.11.24.21.19.25.37,3.68,1.96,1.54.73,5.27,2.9Z" transform="translate(-195.82 -111.65)"/>
        <g>
          <path class="cls-2" d="M476.89,192.3765c0,5.485-9.9315,17.2309-9.9315,17.2309s-9.9315-11.7459-9.9315-17.2309a9.9315,9.9315,0,1,1,19.863,0Z" transform="translate(-195.82 -111.65)"/>
          <g id="layer1-2" data-name="layer1">
            <path id="path6152-2" data-name="path6152" class="cls-1" d="M469.5472,196.6926l-.9153,1.5231-.5656-.9388a5.1307,5.1307,0,0,1-2.2,0l-.5663.9388c-.3227-.5109-.6059-1.06-.9529-1.5475a5.0623,5.0623,0,0,1,.2343-8.8022v-1.1249h4.7686v1.1249a5.0427,5.0427,0,0,1,2.6836,4.3,4.8476,4.8476,0,0,1-2.4869,4.527Zm5.3268-5.161c-.3356-.0551-1.0025-.1147-1.6364-.23a6.4243,6.4243,0,0,0-.3245-1.2092l1.2792-1.0562a7.8278,7.8278,0,0,0-.7524-1.3074l-1.5553.58a6.43,6.43,0,0,0-.8909-.89l.5807-1.5531a7.78,7.78,0,0,0-1.3086-.7518l-1.0581,1.2777a6.475,6.475,0,0,0-1.21-.324l-.2756-1.6369a8.3516,8.3516,0,0,0-1.5109,0l-.2757,1.6369a6.5314,6.5314,0,0,0-1.21.324l-1.058-1.2777a7.85,7.85,0,0,0-1.3086.7518l.5807,1.5531a6.0189,6.0189,0,0,0-.8859.89l-1.56-.58a7.8155,7.8155,0,0,0-.7529,1.3074l1.2793,1.0562a6.5324,6.5324,0,0,0-.3246,1.2092l-1.6387.275a8.8373,8.8373,0,0,0,0,1.5086l1.6387.2755a6.4561,6.4561,0,0,0,.3246,1.2086l-1.2793,1.0569a7.7482,7.7482,0,0,0,.7529,1.3067l1.56-.5794a6.0712,6.0712,0,0,0,.8859.8895l-.5807,1.5527a7.8277,7.8277,0,0,0,1.3086.7518l1.058-1.2778a6.2785,6.2785,0,0,0,1.21.3246l.2757,1.6364a8.2883,8.2883,0,0,0,1.5109,0l.2756-1.6364a6.2354,6.2354,0,0,0,1.21-.3246l1.0581,1.2778a7.7694,7.7694,0,0,0,1.3086-.7518l-.5807-1.5527a6.484,6.484,0,0,0,.8909-.8895l1.5553.5794a7.7712,7.7712,0,0,0,.7524-1.3067l-1.2792-1.0569a6.343,6.343,0,0,0,.3245-1.2086l1.6389-.2755c.0245-.45.0178-1.2569-.0025-1.5536Z" transform="translate(-195.82 -111.65)"/>
            <path id="path6156-2" data-name="path6156" class="cls-3" d="M469.1243,186.9669h-4.3107v1.1351h1.0576v-.2309h.5662v2.1181h-.2266v.9092h1.5109v-.9092h-.2262v-2.1131h.5708v.2259h1.058v-1.1351" transform="translate(-195.82 -111.65)"/>
            <path id="path6160-2" data-name="path6160" class="cls-3" d="M464.6214,188.7065v.9091h.2312v3.6269l-.2312-.0051v.9092h1.516v-.9092h-.2268v-.9041h2.1161v.9041h-.2262v.9092h1.5106v-.9092h-.2262v-3.6263l.2262.0045v-.9091h-1.5106v.9091h.2262v1.8087h-2.1161v-1.8087h.2268v-.9091h-1.516" transform="translate(-195.82 -111.65)"/>
            <path id="path6164-2" data-name="path6164" class="cls-3" d="M466.9687,195.0021l1.6632,2.7663,2.18-3.6264h.5413v-.9046h-1.811v.9046h.2117l-1.122,1.8674-1.6681-2.772-1.6633,2.772-1.1169-1.8674h.2116v-.9046h-1.8161v.9046h.5463l2.18,3.6264,1.6633-2.7663" transform="translate(-195.82 -111.65)"/>
          </g>
        </g>
        <g>
          <text class="cls-4" transform="translate(200.3452 114.5112)">München-Mitte</text>
          <text class="cls-5" transform="translate(200.3452 129.0854)">Schleißheimer Str. 387</text>
        </g>
      </g>
    </a>
    <a xlink:href="https://www.thw-muenchen-west.de/" target="_top">
      <g id="West">
        <path class="cls-1" d="M432.88,275l-.56-.78a14.6586,14.6586,0,0,0-1.08-1.36c-.18-.22-.38-.43-.58-.63l-.01.01q-.15-.18-.33-.36c-.12-.13-.25-.25-.39-.39-.81-.79-1.83-1.67-2.51-2.31l-.07.05a2.3021,2.3021,0,0,0-.33-.38c-.05-.04-.09-.08-.14-.12l-.26-.18.04-.05c-.09-.09-.2-.19-.33-.32-.11-.09-.23-.2-.35-.31-.82-.74-1.96-1.73-2.48-2.19l.01-.01c-.14-.13-.33-.29-.56-.49-.4-.32-.91-.72-1.5-1.17-.35-.27-.74-.55-1.14-.85l-4.23-3.1c-1.5-1.09-2.79-2.02-3.38-2.47-.69-.5-1.72-1.25-2.87-2.07l-2.16-1.55c-.3-.21-.59-.42-.89-.63-.92-.65-1.81-1.27-2.59-1.81-.61-.42-1.15-.78-1.58-1.05l.01-.02c-.33-.21-.75-.51-1.21-.86l-.7-.49-.96-.79c-.24-.19-.47-.38-.69-.56-.29-.24-.56-.46-.79-.65l-.21-.18-.27.04-.01-.31a2.1481,2.1481,0,0,1-.14-.26h.01c-.09-.15-.31-.49-.39-.62a.138.138,0,0,0-.03-.04c-.11-.09-1.91-1.56-2.07-1.69l.01-.02a5.7009,5.7009,0,0,0-.53-.41c-.28-.21-.59-.4-.89-.59s-.6-.37-.87-.54l.01-.01-.25-.16-.02.02a2.2609,2.2609,0,0,0-.25-.19l-.1-.06-.01.01-.04-.04a.1794.1794,0,0,0-.07-.05.6207.6207,0,0,0-.12-.08l.02-.03-.34-.26.03-.03-1.98-1.87-.02.02c-.06-.06-.15-.17-.25-.27-.05-.05-.1-.11-.15-.15a1.13,1.13,0,0,0-.11-.11l.01-.01c-.16-.17-.53-.55-.84-.92l-.23-.25-.05-.11c-.01-.01-.01-.02-.02-.03a1.2322,1.2322,0,0,1-.18-.37c-.06-.19-.14-.44-.21-.73-.06-.19-.11-.41-.17-.64l-.05-.16-.04-.19c-.1-.42-.21-.87-.32-1.36-.06-.24-.11-.48-.17-.73-.14-.61-.28-1.25-.43-1.89l-.94-4.04-.03-.12c-.17-.69-.33-1.29-.47-1.78,0-.01-.01-.02-.01-.03l-.1-.31-.13-.38h.01l-.11-.32h-.02c-.01-.05-.01-.1-.02-.16l-.15-.45.1-.03a.1949.1949,0,0,1-.01-.08l-.04-.35.03-.28a2.1863,2.1863,0,0,1,.03-.36h-.01v-.01h-.01v-.01l-.89-.12-1.05-.24a27.88,27.88,0,0,1-3.97-.91.0758.0758,0,0,1-.04-.02l-.33-.08-.9-.32-.71-.42-.31-.23-.04.04-.19-.19-.04.03c-.03-.04-.08-.1-.13-.16a.5716.5716,0,0,0-.08-.07.1874.1874,0,0,0-.07-.06l.03-.04-.19-.2.03-.02-.14-.19-.05.03c-.02-.04-.04-.09-.07-.14s-.06-.11-.1-.17a.4348.4348,0,0,1-.04-.07l-.16-.21.02-.01a4.6742,4.6742,0,0,1-.27-.65l-.03-.07-.08-.33c-.02-.07-.04-.15-.06-.23l-.13-.53-.05-.65c-.08-.9-.09-1.81-.14-2.61l-.08-.75-.15-.69a8.7442,8.7442,0,0,0-1.12-2.3c-.01-.01-.01-.02-.02-.03l-.64-.87-.07-.1-.04-.06-.08-.1-.87-1.12-.29-.45a15.87,15.87,0,0,1-1.01-1.56l-.01.01c-.09-.16-.29-.47-.39-.62l.01-.01-6.59-10.84-.01.01-.16-.28c-.01,0-.02.01-.03.01a4.6465,4.6465,0,0,0-.34-.62l.03-.02-.47-.99-.03.01a1.5616,1.5616,0,0,0-.07-.17l-.06-.16c-.06-.14-.12-.28-.15-.34l.01-.01v-.01l-.02.01c0-.02-.24-.63-.24-.67-.01,0-.03.01-.04.01-.01-.04-.02-.09-.04-.15-.03-.11-.07-.24-.11-.35a1.3081,1.3081,0,0,0-.05-.15l-.06-.44-.04-.18h-.03l-.04-.33-.09-.36.03-.01-.02-.15-.06.01-.01-.52-.01-.13H361v-.04l-.01-.12-.21.16-.45-.58.46-.35.13-.47-.02-.31-.06-1.09-.02-.26a7.1454,7.1454,0,0,0-.76-2.57,3.376,3.376,0,0,0-.24-.41l-.8-1.02-.01.01-.06-.08-.04.03c-.06-.08-.16-.22-.27-.38-.07-.11-.16-.22-.23-.32l-.12-.15a1.2766,1.2766,0,0,0-.18-.2l.03-.03-3.24-4.14.01-.01c-1.59-2.04-3.42-4.34-5.07-6.43l-4.05.28-1.04.14-.88.32-2.15,1.13-1.58,1.04-2.43,1.77-5.6,3.76-1.01.88-1.13,1.2-1.51,2.35-.21.11.01.05-.07.18-.02.21.41,1.18.01.2-.06.26-.23.44-.35.3-.8.3-.68.26h-.01l-.11.4-.23,1.69-.45,1.2-.1.04-.97,2.29-.28.21-.16.02-17.89,4.06-.65,1.04-.28.17-6.6.46.01.39-.35.38-7.72.28.06.67.07.3-.04.01v.05l-.33.03-.07.01-.72.17-7.18,1.67v.01l-.28.06-.38.09-.09.07-.83-.05-6.16,1.43-1.59.33-.07.1-.42,1.06-.22.25-.31.14-.21.01-.13-.01-2.32-.7-5.24,1.3-5.12,1.13-.19.18-.16.08-3.03.68-.21-.07-2.36.58-.14-.04.01.05-2.42.52-.33-.09-.27-.26-.18.22-.24.01-.46.43-.28.11-.32.04-1.37.11-8.68.75-3.87.37-.11.36-.08.82.01.08-.49,3.38.02.05-.27,1.97h-.02l.05.15-.03.03-.37,3.23-.59,3.18-.54,2.91-.17,2.64,2.58.42.29.47-.11.36,1.14.75.96.48.21.36-.06.6v1.16l.01,1.5-.22,2.35-.3,1.3-.3.66-.25.42,2.48,1.96.1.45-3.12,6.28-.61.67-2.8,2.03-.32.48-.86,2.04-.17.2-2.65,2.48-.15.28-.1-.05-.07.07-.19-.2-.83-.43-1.41-.18-.36-.1-.29-.14-.25-.18-2.5-2.33-1.62.3-.17.03-.55.1v-.01l-2.57.44-2.84-.24h-.01l-.02.06-.22.24-1.76.92-.33.07-2.75.13-.28.19-2.6,3.63-.02.13.93,4.05-.04.21-1,3.2-.11,1.25.01.16-.1.56.01.24-.07.56.02.23-.15,1.16.02.22-.16,1.61-.1.52-.84,2.69-.15.06.05.04-.15.4-.02.07.01.04-1.79,5.05-.55,1.53-.3.58-.77,1-.99.85-.69.43-1.1.5-1.3,6.67-.97,2.7,1.58-.4.5-.16,1.34-.26.84-.11,1.55-.08,1.49-.22.82-.05,2.08.09,2.09.17.62.12.63.04.34.45-.11.49-.16.22-.28.2-.34.04-.07-.03-.2.03.05.32-.04.14-.13.06-.27.69.1.24-.21.51.96.25,1.57.69,1.75.36.68.08,1.48.09.33.25.34.99-.36.49-1.25-.05.67,2.43-.41.46-.52-.08.18.48,2.1.3,1.83.09,1,.1v-.84l.38-.37.29.01,1.7-.03.38.38-.01.24,1.12.05.67.11.85.19,1.68.48.26.31.15,1.17.18,2.03.17,3.28.72-.14.44.35.02.85,1.46-.95.53.14,2.21,4.28,1.18-.72,1.12-.36.46.21,1.58,3.91-.19.47-.81.35,1.57,3.43-.14.47-.21.12-.03.12-.11.05,1.44,3.22-.15.46-2.06,1.23,3.64,8.85-.18.47-2.7,1.31.21.79-.2.42-1.06.52.03.14-.23.44-.28.1-.84.47.47,2.01-.04.07.2.75.43.24.64,2.62-.02.09.03.4-.12.63-.06-.03-.09.2-.58,2.54.07.16,1.07,3.2,1.19-.31,3.01-1.02.47.24,1.9,5.8,10.1.47.24-.29,2.07-.62,2.04-.5,3.86-.6.99-.2,1.34-.88,1.64-.87,1.14-.68.84-.39.3-.01.09.04,3.34-2.35,3.49-3.17.55-.5.33-.3,4.77-3.55.73-.77.47-.57.29-.71.59-2.44.87-1.57,2.23-2.61,1.8-.82h.07l3.13-1.34h.06l.01-.06.16.05.11.03.44.1v.02l3.58,1.01,1.13-.11,1.12.2.91.46.73.78.14-.38-.08-.07.2-.24.11-.28.1.04.06-.08.23.19.3.12-.04.1,2.81,2.37.07.48-.49.75v.25l.45.03,1.52.28h.4l1.48.33,1.43.61.28-.06,3.38-.34.16.02,2.91,1.07.01-.01.52-.04.11.09.18-.04.05.24.18.15-.12.14.04.19-.24.05-.15.18-.13-.11-.34.43.01.01.15.24.2.55.02.32.13.29.26.29.09.22.3.29.11.24.03.25-.09.35.05.11.11-.26.21-.21.09-.28,1.34-2.35.47-.15,1.45.65.18-1.15.44-.28.16.03.07-.01.25.01,2.18.19,1.29.15.8.15.27.52-.12.25.52.1,2.98.42V346l.47-.32,3.06.82.26.47L330.3,349l.44.2,2.76.78.27.41-.05.27.18.04,1.65-.03.36.23.1.27.06.54.32.17.37.14.21-.08.07.18.18.07-.08.22.21.58.18.61h.01l.11.43v.01h.05l.03.26v.05l.09.35-.05.01.22,2.17v.11l-.12.75-.06,1.56-.26,2.1v.79l.03.37,1.7.1.74.04,2.74.15,3.42.07h.29l3.16.02h.74v.01l1.26.01,2.31-.03,4.35-.14,6.22-.29v.01l1.47-.07.74-.03,1.87-.07,1.4-.11,1.36-.16,1.41-.25,2.03-.5,1-.31,2.69-.98,2.42-.89v-.01l.08-.03.05-.02.56-.2v.01l.12-.04,1.13-.35.92-.24,1.27-.24,1.44-.19,1.33-.06v-.02l.36.01.36-.02v.02l.39.01v-.03l.4.03.32.01v.02l2.39.21,1.94.3,2.82.52.72.13,4.83.91.56.11v-.01l.3.05v-.01l8.77,1.59.11-.25c.1-.27.21-.56.3-.77l-.05-.02c.04-.08.07-.17.11-.26l-.01-.3.14-.01c.24-.56.51-1.23.8-1.83l.13-.31.18-.31a5.0445,5.0445,0,0,1,.38-.59l-.02-.01a.6233.6233,0,0,0,.09-.12c.04-.05.08-.11.12-.17.08-.11.16-.23.2-.29l.03.02c.74-.97,2.07-2.28,2.91-3.19l-.02-.02c.1-.1.42-.41.52-.51l-.02-.03c.15-.12.29-.24.44-.35l.09-.09.01.01c.41-.34.83-.68,1.26-1.03.21-.17.42-.34.63-.52l2.4-2.03.56-.47c.09-.07.17-.14.25-.21,1.02-.89,2-1.78,2.9-2.67a1.1985,1.1985,0,0,0,.12-.11l1.07-1.08.02.02c.2-.2.44-.42.69-.67.06-.06.12-.12.18-.19.18-.19.35-.38.51-.58a2.3982,2.3982,0,0,0,.18-.26c.06-.08.11-.17.16-.25.05-.13.1-.29.15-.47.08-.27.17-.58.24-.87.02-.1.05-.2.07-.29l.1-.48.45-3.16a.59.59,0,0,0,.02-.14,30.7019,30.7019,0,0,0,.25-3.54v-.17l-.13-1.76h-.01c-.01-.18-.03-.56-.04-.73h.01l-.08-1.8h-.02c-.01-.19-.01-.41-.01-.64v-.57l.01-.28c.01-.35.02-.68.03-.95h-.01c.02-.34.06-1.04.07-1.38h-.01c.01-.11.03-.59.04-.71h.02l.19-2.22h-.02q.015-.12.03-.27l.04-.33.01-.11.02-.13c.04-.42.09-.88.15-1.34.02-.2.05-.4.08-.59,0-.04.01-.07.01-.11l.09-.78.16-.49a.09.09,0,0,1,.01-.05,4.6988,4.6988,0,0,1,.26-.8c.08-.15.17-.31.27-.49l.11-.2.12-.19c.08-.15.17-.29.25-.43l.15-.27.26-.5.19-.59c.05-.2.1-.42.14-.63l.09-.64a1.9419,1.9419,0,0,0,.02-.24h-.02c.02-.18.04-.54.05-.72h.02l.03-.6c.01-.2.02-.43.03-.68l.02-.62c.01-.17.02-.34.02-.51l.05-1.6.03-1.04.03-.93c.01-.43.02-.78.03-1.03h.01c.04-2.42.12-6.01.18-9l.03-1.44c.01-.46.01-.89.02-1.29h.01c.07-2.75.15-5.57.22-8.41l.02-.74.04-1.2c.06-2.1.11-4.2.17-6.28v-.01C433.71,276.18,433.3,275.59,432.88,275Z" transform="translate(-195.82 -111.65)"/>
        <g>
          <path class="cls-2" d="M276.8375,280.5291c0,5.485-9.9316,17.2309-9.9316,17.2309s-9.9315-11.7459-9.9315-17.2309a9.9316,9.9316,0,0,1,19.8631,0Z" transform="translate(-195.82 -111.65)"/>
          <g id="layer1-3" data-name="layer1">
            <path id="path6152-3" data-name="path6152" class="cls-1" d="M269.4952,284.8451l-.9153,1.5232-.5657-.9388a5.1307,5.1307,0,0,1-2.2,0l-.5663.9388c-.3227-.5109-.6059-1.06-.9529-1.5475a5.0623,5.0623,0,0,1,.2343-8.8022v-1.125h4.7686v1.125a5.0423,5.0423,0,0,1,2.6836,4.3,4.8473,4.8473,0,0,1-2.4868,4.5269Zm5.3267-5.1609c-.3356-.0551-1.0025-.1147-1.6363-.23a6.4374,6.4374,0,0,0-.3245-1.2092l1.2792-1.0562a7.8353,7.8353,0,0,0-.7525-1.3074l-1.5553.58a6.4184,6.4184,0,0,0-.8908-.89l.5807-1.5531a7.7885,7.7885,0,0,0-1.3087-.7519l-1.0581,1.2777a6.4825,6.4825,0,0,0-1.21-.3239l-.2755-1.6369a8.3345,8.3345,0,0,0-1.511,0l-.2757,1.6369a6.5322,6.5322,0,0,0-1.21.3239l-1.058-1.2777a7.854,7.854,0,0,0-1.3087.7519l.5807,1.5531a6.0183,6.0183,0,0,0-.8858.89l-1.56-.58a7.816,7.816,0,0,0-.753,1.3074l1.2793,1.0562a6.5381,6.5381,0,0,0-.3246,1.2092l-1.6387.275a8.8362,8.8362,0,0,0,0,1.5085l1.6387.2756a6.4561,6.4561,0,0,0,.3246,1.2086l-1.2793,1.0568a7.7516,7.7516,0,0,0,.753,1.3067l1.56-.5794a6.0657,6.0657,0,0,0,.8858.89l-.5807,1.5527a7.8291,7.8291,0,0,0,1.3087.7519l1.058-1.2779a6.2778,6.2778,0,0,0,1.21.3247l.2757,1.6364a8.2894,8.2894,0,0,0,1.511,0l.2755-1.6364a6.2267,6.2267,0,0,0,1.21-.3247l1.0581,1.2779a7.764,7.764,0,0,0,1.3087-.7519l-.5807-1.5527a6.4833,6.4833,0,0,0,.8908-.89l1.5553.5794a7.7638,7.7638,0,0,0,.7525-1.3067l-1.2792-1.0568a6.36,6.36,0,0,0,.3245-1.2086l1.6388-.2756c.0245-.45.0178-1.2568-.0025-1.5535Z" transform="translate(-195.82 -111.65)"/>
            <path id="path6156-3" data-name="path6156" class="cls-3" d="M269.0722,275.12h-4.3106v1.1351h1.0575v-.2309h.5662v2.1181h-.2266v.9092h1.511v-.9092h-.2262v-2.1131h.5707v.2259h1.058V275.12" transform="translate(-195.82 -111.65)"/>
            <path id="path6160-3" data-name="path6160" class="cls-3" d="M264.5694,276.8591v.909h.2312v3.627l-.2312-.0052v.9092h1.5159V281.39h-.2267v-.904h2.1161v.904h-.2262v.9092h1.5105V281.39h-.2262v-3.6262l.2262.0044v-.909h-1.5105v.909h.2262v1.8087h-2.1161v-1.8087h.2267v-.909h-1.5159" transform="translate(-195.82 -111.65)"/>
            <path id="path6164-3" data-name="path6164" class="cls-3" d="M266.9167,283.1547l1.6632,2.7663,2.18-3.6264h.5413V281.39H269.49v.9047h.2117l-1.122,1.8673-1.6682-2.772-1.6633,2.772-1.1169-1.8673h.2117V281.39h-1.8161v.9047h.5463l2.18,3.6264,1.6633-2.7663" transform="translate(-195.82 -111.65)"/>
          </g>
        </g>
        <g>
          <text class="cls-4" transform="translate(83.5173 171.548)">München-West</text>
          <text class="cls-5" transform="translate(83.5173 186.1222)">Ubostraße 7</text>
        </g>
      </g>
    </a>
    <a xlink:href="http://www.thw-muenchen-ost.de/" target="_top">
      <g id="Ost">
        <path class="cls-1" d="M681.55,331.94l-.12.45.76,1.65.18.44-6.27,2.94-1-2.13-.49-.18-2.93,1.38-.14.55,2.67,3.57.08.13-3.29,2.5v.58l2.33,1.89.44.02,1.23-.86.77.84-.07.08.03.52,1.19,1.03L674.2,355l-2.24,2.3-1.49-1.78-.56-.01-2.12,2.47-.08-.16-.52-.15-1.59.99-.29-.09-1.11.21-.43.17-.4.22-1.82,1.55-8.77-7.49-.52.04-1.63,1.85-.51.02-.27.13-2.06,2.37-.01-.01-.23.29-.24.27.01.01-.01.01.42.34.14.12,4.12,3.33-1.56,2.12-.69-.5-.6-.43-.43.59.01.01-.23.32.01.04-.81,1.12-.04-.02-.14.27-.2.27.27.2.01.06.94.65,2.19.68.32.28.27.01,1.31.4,1.05.64.2.04.31-.01.35-.14.92.29.1-.07,14.29,4.25-1.95,2.29.21.47-.07.08,1.14.95.63.64.61.71.62.64.99.9.88.92.65.6.25.18.59.44.01-.01.51.37.26.06.32-.05.15-.04v.04l-.43,2.54-.23,1.87-.78,3.03-.14.36-.1.74.02.91-.13,1.06-.45,1.42-.25.19-.87.79-.75.88-2.2,2.47-.3.35-.62.55-3.57,2.02-2.36,1.79-1.31.31-.9.56-1.69.96-1.79.95-3.51,2.44-.66.58-.29.38-.19.19-.51.27-.68-.05-1.03.2-.31.02-.68.25-.85.7-2.92,1.8-.63.38v.01l-2.8,1.73-.17.37.22,1.57-2.05.78-.05-.07-.27.19-.3.11.03.07-.07.05.17.23.13.34.1-.04.63.86.96,1.03-.4-.01-.11.1-1.19-.33-1.24-.28-.46-.03-.8.12-.75-.04-1.27.38-.53.21-.41.34-.43.67-.2.84-.16,2.13.07,2.52-.1,1.44-.25,1.64-.11.35-.11.63-.29.7-.31,2.5-.38,1.28-.32,1.78.01.66.1.54.33.78.1.39.1.18.8.68.53.5.78,1.07.33.3.46.28-.03.74.2.93.01.63.32,1.19.43,1.19.39.72.39.97.15.28.57.65-.72-.09-2.1-.22-3.07-.55-1.23-.17v-.02l-.32-.4-.97-.12-.41.31v.01l-6.31-.83-.41.26-.26.93-2.02.33-1.8.05-3.46.26-2.66-.38-.28-.44-1.56-.33-.1-.22-1.23-.55-.5.21-.02.06-3.28-.85-.6-.27-.23.09-8.25-2.05-5.37-1.43-4.49-1.38-.16.08-6.71-1.77-2.75-.66-1.89-.39-.21-.34-1.69-.36-2.51-.48-1.45-.18-1.16-.05V438l.02-1.14-.07-1.77.05-.38-.07-.01v-.06l-.32.01h-.01l-.45-.06-2.32-.31-1.52-.09-.01-.24-.33-.36-3.28-.31.1-.34-.19-.3-.46-.09-.48.04-.22-.09-3.16-.28.07-1.04-.08-.07.01-.1-.34-.4-9.5-.84-.37.4h-1l-.92.15-.3.37v.64l-4.01-.14-.38.42.2,1.61-4.07.49-.26-.1-.16-.03h-.05l-.73.04-1.64.09-.15-.14-.14.16-.23.01.01.22-.68.75-2.23,2-.57.45-2.26-4.17-.45-.17-4.39,1.52-.26.14-.34.38-.23.85-.11.13-.13.07-1.02.09-.68.12-.67.21-.94.43-.28-.49-.51-.13-.37.22-.15.46v.02l-.14.4.1.18-.77.39-.4-.04-.62-.08-.33-.89-.24-2.1-.55-1.73-.76-1.99-.27-.69L507,422.5l-.07-.03.03-.08-.5-1.27-.12-.15-.25-.19-.37-.1-.39.09-.35.05-.19-.03-.64-.63-.5-.05-.79.6-.45.22h-.15l-.14-.07-.13-.21-.14.08-.14-.07-.12.23-2.47,1.48-.31.19-4.1,2.46v.01l-.2.11v.01h-.01l-.63.38-4.96,2.94-.64.38-1.22.72-.25-.01-.01.17-.14.08.13.22-.03.57-1.17-.11-.22.05-4.59,2.64v.01l-6.52,3.73-.64.37-1.15.66-.79.41.02.04-.33.26v.08l-.44,2.67-.73-.17-.72-.17-.57-.14.01-.1-.3-.4-7.91-1.38-.73-.13v.01l-.29-.05-.41.26-.54,1.83-.2.7-.56,1.95-2.49,8.46-.21.71-.42,1.43-.21.71-.75,2.45-.21.7-.52,1.7.35.24-.03.05h-.03l-.44.23-1.75,5.51-.14.44-.22.08-.13.25-1.07,3.25-1.21,3.37-1.21-.22.1-1.33-.25-1.04.33-1.14.01-.16-.5-3.42-1.12-2.14.51-.8-.05-.45-.26-.41.01-.02-.02-.18-.29-.4-.17-.14-.22-.31-.17-.16-.14-.28-.15-.14-.55-.24-.09.01-.07-.04-.05.02-.34.08-.14-1.09-.06-.2-.01-.11.11-.59.07-.17.25-.71-.01-.09.37-1.12.02-.79.12-.92-.01-.07v-.01h.05l.01-.25.08-.39-.07-.02v-.08l-.33-.01-.31-.08-.02.08-.76-.02-.74-.01-.22-.01c-.03-.48-.06-.95-.09-1.42,2.52-4.76,4.67-12.57,7.16-17.31,1.59-2.02,4.09-5.14,4.77-7.85h.04c1.76-6.96-2.15-16.63.72-23.46l.71-.62c.37.09.99.07,1.18-.31l.37-.12c1.09.67,1.94-.83,2.58-1.84h.01c.05-.06.12-.14.19-.24.08-.05.16-.1.23-.15l-.05-.09c.67-.96,1.79-2.69,2.15-3.2l-.08-.07a10.1815,10.1815,0,0,0,2.54-2.45c.07-.02.13-.04.19-.06l-.03-.12c2.02-2.03,3.65-5.39,2.63-8.15-1.64-1.94-1.39-7.17-1.59-9.52.88-3.77,3.9-7.29,6.61-9.95,4.33-3.4,9.75-8.31,14.63-12.27l.62.03c1.12-.26,2.28-1.5,3.33-1.93a7.5457,7.5457,0,0,0,3.18-1.03c2.15-.61,5.06-1.11,6.04-3.4.73-.93,1.96-2.43,2.01-3.68.6-1.33,1.92-2.91,2.43-4.25,3.06-3.16,5.22-5.98,6.22-10.35.05-.03.1-.05.15-.08l-.07-.13c2.46-4.41,3.61-9.87,4.02-14.84,6.4-15.32,18.19-32.02,26.23-46.73l-.01-.01c.04-.08.09-.16.13-.24,5.64-9.74,11.49-19.75,16.67-30.06l.81.42.25-.07.34.15-.01.01.14.49.35.21.02.01-.88.96h-.01v.01l-.2.28-.22.31-.13.2-.18.1-.17.41-.27.4-1.04,1.97-.13.75-.63,1.43-.03.1h-.01l-.05.24-.13.46.07.02.02.27-.04.41-.25.3-.1.26v.18l-.07.38-.09.01.04.28-.06.34.08.01-.03.34-.27,1.24.31.45,1.09.14,2.62.18.39-.33.04-.42.19-.15.02-.1.15.05-.01.03.29.07.38.13.01-.04.04.01.09-.37.1-.3,7.09,2.43-.14.65-.68,1.53-.24.3-.1.04-.24-.14-.05.08-.1-.02-.06.26-.03.01.02.04-.16.26.08.05-.02.1.29.07.07.16.16-.06,2.13,1.15,3.08,1.04,1.56.63.48-.21.33-.86,4.86.3.73.04h.01l.04.12.28-.1.3.02.01-.12.11-.04-.1-.28.02-.23,2.9-.32.32-.38-.01-.42,3.32-.12.35-.4-.05-.56,19.32-2.79.31-.28.23-1.07v-.18l-.11-.33-.26-.44-.38-.4-.48-.36-.18-.07-.22-.01-.24.02-4.22-3.88-.33-.41-.04-.29.13-1.19-.36-1.52.14-.14-.04-.39.02-.3.09-.16.35.02.36-.22.57-1.29.02-.25-.03-.1.04-.18,9.17.72,3.93.5,4.27.47,4.56.4,3.4.44,6.1,1.4,1.68.37.35-.1,1.11-1.13.77-1.05.97-.79.13-.3-.07-1.56,2.03.12,1.01.18.45.08,2.2,2.51,2.34,2.14-6.05,3.57-.05.6,3.55,2.99-.08.4,3.79,4.05-3.42,7.1-5.87-1.72-4.05-.38-.39.46.08.26.04.54.11.24.08.14-.07.53.47.88.23.78.38.64-.15.42v.2l.08.25-.09.28-.05.36-.54.68-.05.12-.14.05-.28.28-.05.21.18.93-.18.53-.5.43-.16.17-.22.46-1.9,3.16-1.72,2.64-1.03,1.52-.67,1.17-2.8,4.19-.19.44-4.62,6.43-.43.44-.96,1.33h.01l-.17.22.07.51,7.93,6.2-1.77,17.69-.09.02.06.3-.03.32.1.01.02.09.28-.06.33.03.01-.1,6.26-1.35.76.19.06.02h.17l10.53-2.27.03-.08.14.04,2.26-.47,1.7-.43.34-.03,4.89-1.04.04-.08.13.05,5.61-1.21.04-.1.17.06,6.92-1.49.72-.15v-.01l1.32-.28.56.3.09.23,3.83,4.24-2.74,1.55-.09.57,2.29,2.55-3.4,2.66.05.07-.2.47,4.85,5.28.51.03.08-.07.74.77.91.58,3.98,1.43.35-.06,3.19-2.55,2.96,3.37-2.51,1.92Z" transform="translate(-195.82 -111.65)"/>
        <g>
          <path class="cls-2" d="M570.6925,403.2271c0,5.485-9.9315,17.2309-9.9315,17.2309s-9.9316-11.7459-9.9316-17.2309a9.9316,9.9316,0,0,1,19.8631,0Z" transform="translate(-195.82 -111.65)"/>
          <g id="layer1">
            <path id="path6152" class="cls-1" d="M563.3392,406.7209l-.9153,1.5231-.5656-.9388a5.1307,5.1307,0,0,1-2.1995,0l-.5664.9388c-.3226-.5109-.6058-1.06-.9528-1.5475a5.0623,5.0623,0,0,1,.2343-8.8022v-1.1249h4.7686v1.1249a5.0427,5.0427,0,0,1,2.6836,4.3,4.8478,4.8478,0,0,1-2.4869,4.527Zm5.3268-5.161c-.3356-.0551-1.0025-.1147-1.6364-.23a6.4243,6.4243,0,0,0-.3245-1.2092l1.2792-1.0562a7.8278,7.8278,0,0,0-.7524-1.3074l-1.5553.58a6.43,6.43,0,0,0-.8909-.89l.5807-1.5531a7.78,7.78,0,0,0-1.3086-.7518L563,396.42a6.48,6.48,0,0,0-1.21-.324l-.2756-1.6369a8.3516,8.3516,0,0,0-1.5109,0l-.2757,1.6369a6.5314,6.5314,0,0,0-1.21.324l-1.058-1.2777a7.85,7.85,0,0,0-1.3086.7518l.5807,1.5531a6.0189,6.0189,0,0,0-.8859.89l-1.56-.58a7.8229,7.8229,0,0,0-.753,1.3074l1.2794,1.0562a6.5324,6.5324,0,0,0-.3246,1.2092l-1.6387.275a8.8271,8.8271,0,0,0,0,1.5086l1.6387.2755a6.4485,6.4485,0,0,0,.3246,1.2086l-1.2794,1.0569a7.7556,7.7556,0,0,0,.753,1.3067l1.56-.5794a6.0712,6.0712,0,0,0,.8859.8895l-.5807,1.5527a7.8277,7.8277,0,0,0,1.3086.7518l1.058-1.2778a6.2785,6.2785,0,0,0,1.21.3246l.2757,1.6364a8.2883,8.2883,0,0,0,1.5109,0l.2756-1.6364a6.2326,6.2326,0,0,0,1.21-.3246l1.0582,1.2778a7.7694,7.7694,0,0,0,1.3086-.7518l-.5807-1.5527a6.484,6.484,0,0,0,.8909-.8895l1.5553.5794a7.7672,7.7672,0,0,0,.7524-1.3067l-1.2792-1.0569a6.343,6.343,0,0,0,.3245-1.2086l1.6389-.2755c.0245-.45.0178-1.2569-.0025-1.5536Z" transform="translate(-195.82 -111.65)"/>
            <path id="path6156" class="cls-3" d="M562.9163,396.9952h-4.3107V398.13h1.0576v-.2309h.5662v2.1181h-.2266v.9092h1.5109v-.9092h-.2262v-2.1131h.5708v.2259h1.058v-1.1351" transform="translate(-195.82 -111.65)"/>
            <path id="path6160" class="cls-3" d="M558.4134,398.7348v.9091h.2312v3.6269l-.2312-.0051v.9092h1.516v-.9092h-.2268v-.9041h2.1161v.9041h-.2262v.9092h1.5106v-.9092h-.2262v-3.6263l.2262.0045v-.9091h-1.5106v.9091h.2262v1.8087h-2.1161v-1.8087h.2268v-.9091h-1.516" transform="translate(-195.82 -111.65)"/>
            <path id="path6164" class="cls-3" d="M560.7607,405.03l1.6632,2.7663,2.18-3.6264h.5413v-.9046h-1.811v.9046h.2117l-1.122,1.8674-1.6681-2.772-1.6634,2.772-1.1168-1.8674h.2116v-.9046h-1.8161v.9046h.5463l2.18,3.6264,1.6633-2.7663" transform="translate(-195.82 -111.65)"/>
          </g>
        </g>
        <g>
          <text class="cls-4" transform="translate(301.0714 261.6765)">München-Ost</text>
          <text class="cls-5" transform="translate(301.0714 276.2507)">Unterbiberger Str. 5</text>
        </g>
      </g>
    </a>
  </g>
  <g id="Beschreibungen">
    <text class="cls-8" transform="matrix(0.5025, 0.8646, -0.8646, 0.5025, 145.9295, 69.7902)">Dachauer Str.</text>
    <text class="cls-8" transform="translate(248.955 200.4398) rotate(-90)">B 2R</text>
    <text class="cls-8" transform="translate(155.9449 262.7617)">A 96</text>
    <text class="cls-8" transform="translate(285.6346 244.6738) rotate(-40.6154)">Isar</text>
  </g>
</svg>
